<?xml version="1.0" encoding="utf-8"?>
<!-- Generator: Adobe Illustrator 16.0.0, SVG Export Plug-In . SVG Version: 6.00 Build 0)  -->
<!DOCTYPE svg PUBLIC "-//W3C//DTD SVG 1.1//EN" "http://www.w3.org/Graphics/SVG/1.1/DTD/svg11.dtd">
<svg version="1.1" id="Layer_1" xmlns="http://www.w3.org/2000/svg" xmlns:xlink="http://www.w3.org/1999/xlink" x="0px" y="0px"
	 width="619.502px" height="196.413px" viewBox="0 0 619.502 196.413" enable-background="new 0 0 619.502 196.413"
	 xml:space="preserve">
<g>
	<g>
		<g>
			<path fill="#FFFFFF" d="M42.308,32.414L23.315,1.594H0v79.609h21.609V35.598l20.244,31.047h0.455l20.357-31.16v45.719h21.949
				V1.594H61.3L42.308,32.414z M73.048,7.836c1.697,0,3.072,1.375,3.072,3.07c0,1.697-1.375,3.07-3.072,3.07
				c-1.696,0-3.07-1.373-3.07-3.07C69.978,9.211,71.353,7.836,73.048,7.836z M73.048,22.971c1.697,0,3.072,1.375,3.072,3.07
				c0,1.697-1.375,3.072-3.072,3.072c-1.696,0-3.07-1.375-3.07-3.072C69.978,24.346,71.353,22.971,73.048,22.971z M73.048,38.107
				c1.697,0,3.072,1.375,3.072,3.07s-1.375,3.07-3.072,3.07c-1.696,0-3.07-1.375-3.07-3.07S71.353,38.107,73.048,38.107z
				 M73.048,53.242c1.697,0,3.072,1.375,3.072,3.072c0,1.695-1.375,3.07-3.072,3.07c-1.696,0-3.07-1.375-3.07-3.07
				C69.978,54.617,71.353,53.242,73.048,53.242z M73.048,68.377c1.697,0,3.072,1.377,3.072,3.072c0,1.697-1.375,3.07-3.072,3.07
				c-1.696,0-3.07-1.373-3.07-3.07C69.978,69.754,71.353,68.377,73.048,68.377z M10.093,74.52c-1.696,0-3.071-1.373-3.071-3.07
				c0-1.695,1.375-3.072,3.071-3.072c1.697,0,3.071,1.377,3.071,3.072C13.165,73.146,11.79,74.52,10.093,74.52z M10.093,59.385
				c-1.696,0-3.071-1.375-3.071-3.07c0-1.697,1.375-3.072,3.071-3.072c1.697,0,3.071,1.375,3.071,3.072
				C13.165,58.01,11.79,59.385,10.093,59.385z M10.093,44.248c-1.696,0-3.071-1.375-3.071-3.07s1.375-3.07,3.071-3.07
				c1.697,0,3.071,1.375,3.071,3.07S11.79,44.248,10.093,44.248z M10.093,29.113c-1.696,0-3.071-1.375-3.071-3.072
				c0-1.695,1.375-3.07,3.071-3.07c1.697,0,3.071,1.375,3.071,3.07C13.165,27.738,11.79,29.113,10.093,29.113z M10.093,13.977
				c-1.696,0-3.071-1.373-3.071-3.07c0-1.695,1.375-3.07,3.071-3.07c1.697,0,3.071,1.375,3.071,3.07
				C13.165,12.604,11.79,13.977,10.093,13.977z M26.11,24.848c-1.412,0.938-3.318,0.555-4.257-0.859
				c-0.939-1.412-0.556-3.316,0.857-4.256c1.413-0.939,3.318-0.557,4.257,0.855C27.907,22.002,27.523,23.908,26.11,24.848z
				 M34.49,37.451c-1.412,0.939-3.319,0.555-4.258-0.857s-0.555-3.318,0.857-4.258c1.413-0.939,3.319-0.555,4.258,0.857
				C36.287,34.605,35.903,36.512,34.49,37.451z M44.008,50.057c-1.413,0.938-3.319,0.553-4.258-0.859s-0.556-3.318,0.856-4.258
				c1.413-0.938,3.319-0.555,4.258,0.857C45.804,47.209,45.42,49.117,44.008,50.057z M53.226,36.594
				c-0.939,1.412-2.846,1.797-4.258,0.857c-1.413-0.939-1.797-2.846-0.857-4.258c0.939-1.412,2.845-1.797,4.258-0.857
				C53.78,33.275,54.164,35.182,53.226,36.594z M61.605,23.988c-0.939,1.414-2.845,1.797-4.257,0.859
				c-1.413-0.939-1.797-2.846-0.857-4.26c0.939-1.412,2.845-1.795,4.257-0.855S62.543,22.576,61.605,23.988z"/>
		</g>
		<g>
			<g>
				<path fill="#FFFFFF" d="M130.793,1.025L97.015,81.203h23.086l5.688-14.33h30.821l5.686,14.33h23.655L152.06,1.025H130.793z
					 M146.161,13.447c1.567-0.648,3.363,0.094,4.013,1.66c0.65,1.568-0.094,3.363-1.661,4.014c-1.567,0.648-3.364-0.094-4.013-1.662
					C143.851,15.893,144.594,14.098,146.161,13.447z M150.126,49.699h-17.855l8.985-22.518L150.126,49.699z M132.793,15.107
					c0.649-1.566,2.446-2.309,4.013-1.66c1.567,0.65,2.311,2.445,1.661,4.012c-0.649,1.568-2.446,2.311-4.013,1.662
					C132.887,18.471,132.143,16.676,132.793,15.107z M115.285,73.389c-0.649,1.568-2.446,2.311-4.014,1.66
					c-1.566-0.648-2.31-2.445-1.66-4.012c0.649-1.568,2.446-2.311,4.013-1.66C115.191,70.025,115.934,71.822,115.285,73.389z
					 M121.081,59.406c-0.649,1.566-2.447,2.311-4.014,1.662c-1.566-0.65-2.31-2.447-1.66-4.014c0.649-1.566,2.446-2.311,4.012-1.662
					C120.986,56.043,121.73,57.84,121.081,59.406z M126.876,45.424c-0.649,1.566-2.446,2.311-4.013,1.662
					c-1.566-0.65-2.31-2.445-1.661-4.014c0.649-1.566,2.446-2.311,4.013-1.66C126.782,42.061,127.525,43.857,126.876,45.424z
					 M128.658,33.104c-1.566-0.65-2.311-2.445-1.66-4.014c0.649-1.566,2.445-2.309,4.012-1.66c1.567,0.648,2.311,2.445,1.662,4.012
					C132.022,33.01,130.226,33.752,128.658,33.104z M133.379,61.301c-1.696,0-3.071-1.375-3.071-3.07c0-1.697,1.375-3.07,3.071-3.07
					c1.695,0,3.071,1.373,3.071,3.07C136.45,59.926,135.074,61.301,133.379,61.301z M149.588,61.301
					c-1.696,0-3.072-1.375-3.072-3.07c0-1.697,1.375-3.07,3.072-3.07c1.695,0,3.071,1.373,3.071,3.07
					C152.659,59.926,151.283,61.301,149.588,61.301z M169.343,69.377c1.566-0.65,3.363,0.092,4.012,1.66
					c0.649,1.566-0.094,3.363-1.661,4.012c-1.567,0.65-3.364-0.092-4.013-1.66C167.032,71.822,167.775,70.025,169.343,69.377z
					 M163.547,55.393c1.566-0.648,3.363,0.096,4.012,1.662c0.649,1.566-0.094,3.363-1.66,4.014
					c-1.567,0.648-3.365-0.096-4.014-1.662C161.236,57.84,161.98,56.043,163.547,55.393z M157.752,41.412
					c1.566-0.65,3.363,0.094,4.013,1.66c0.649,1.568-0.095,3.363-1.661,4.014c-1.567,0.648-3.364-0.096-4.013-1.662
					S156.185,42.061,157.752,41.412z M155.969,29.09c0.65,1.568-0.094,3.363-1.661,4.014c-1.567,0.648-3.364-0.094-4.013-1.662
					c-0.649-1.566,0.095-3.363,1.662-4.012S155.319,27.523,155.969,29.09z"/>
			</g>
			<g>
				<path fill="#FFFFFF" d="M268.863,31.471v-1.506c0-7.848-2.388-15.18-7.051-19.842c-5.345-5.346-13.761-8.529-25.93-8.529
					h-37.644v79.609h22.063V60.979h9.781l16.035,20.225h25.362L252.486,57.34C262.38,53.131,268.863,43.752,268.863,31.471z
					 M208.641,74.52c-1.696,0-3.071-1.373-3.071-3.07c0-1.695,1.375-3.072,3.071-3.072c1.696,0,3.071,1.377,3.071,3.072
					C211.712,73.146,210.337,74.52,208.641,74.52z M208.641,55.486c-1.696,0-3.071-1.375-3.071-3.07s1.375-3.072,3.071-3.072
					c1.696,0,3.071,1.377,3.071,3.072S210.337,55.486,208.641,55.486z M208.641,33.588c-1.696,0-3.071-1.375-3.071-3.072
					c0-1.695,1.375-3.07,3.071-3.07c1.696,0,3.071,1.375,3.071,3.07C211.712,32.213,210.337,33.588,208.641,33.588z M208.641,13.977
					c-1.696,0-3.071-1.373-3.071-3.07c0-1.695,1.375-3.07,3.071-3.07c1.696,0,3.071,1.375,3.071,3.07
					C211.712,12.604,210.337,13.977,208.641,13.977z M257.054,27.445c1.696,0,3.071,1.375,3.071,3.072
					c0,1.695-1.375,3.07-3.071,3.07c-1.696,0-3.071-1.375-3.071-3.07C253.983,28.82,255.358,27.445,257.054,27.445z M230.815,7.836
					c1.696,0,3.071,1.375,3.071,3.07c0,1.697-1.375,3.07-3.071,3.07c-1.696,0-3.071-1.373-3.071-3.07
					C227.744,9.211,229.119,7.836,230.815,7.836z M230.815,55.486c-1.696,0-3.071-1.375-3.071-3.07s1.375-3.07,3.071-3.07
					s3.071,1.375,3.071,3.07S232.511,55.486,230.815,55.486z M244.987,64.475c-1.412,0.939-3.319,0.555-4.258-0.857
					s-0.555-3.318,0.857-4.258c1.413-0.939,3.319-0.557,4.257,0.857C246.784,61.629,246.4,63.535,244.987,64.475z M246.8,32.947
					c0,5.801-4.436,10.744-11.829,10.744h-14.67V20.586h14.557c7.278,0,11.942,5.779,11.942,12.148V32.947z M246.855,15.508
					c0-1.695,1.375-3.07,3.071-3.07c1.696,0,3.071,1.375,3.071,3.07c0,1.697-1.375,3.072-3.071,3.072
					C248.23,18.58,246.855,17.205,246.855,15.508z M248.311,46.158c0-1.697,1.375-3.07,3.071-3.07c1.696,0,3.071,1.373,3.071,3.07
					c0,1.695-1.375,3.07-3.071,3.07C249.686,49.229,248.311,47.854,248.311,46.158z M255.23,69.75
					c0.939,1.41,0.555,3.318-0.857,4.258c-1.413,0.938-3.319,0.553-4.258-0.857c-0.938-1.412-0.555-3.318,0.857-4.258
					C252.384,67.953,254.291,68.338,255.23,69.75z"/>
			</g>
			<g>
				<path fill="#FFFFFF" d="M367.697,41.398V41.17C367.697,18.311,349.5,0,324.934,0c-24.564,0-42.988,18.539-42.988,41.398v0.227
					c0,22.859,18.197,41.17,42.762,41.17c9.098,0,17.4-2.502,24.225-7.053l8.758,7.85l11.145-12.398l-8.189-6.936
					C365.08,57.662,367.697,49.814,367.697,41.398z M325.389,6.545c1.697,0,3.07,1.375,3.07,3.07c0,1.697-1.373,3.07-3.07,3.07
					s-3.072-1.373-3.072-3.07C322.316,7.92,323.691,6.545,325.389,6.545z M300.521,16.311c1.199-1.199,3.144-1.199,4.344,0
					c1.199,1.199,1.199,3.143,0,4.342c-1.2,1.201-3.145,1.199-4.344,0.002C299.322,19.453,299.321,17.51,300.521,16.311z
					 M293.827,44.248c-1.696,0-3.071-1.373-3.071-3.07c0-1.695,1.375-3.072,3.071-3.072c1.695,0,3.07,1.377,3.07,3.072
					C296.897,42.875,295.522,44.248,293.827,44.248z M304.865,66.045c-1.2,1.201-3.145,1.201-4.344,0
					c-1.199-1.199-1.2-3.145,0-4.344c1.199-1.199,3.144-1.197,4.342,0.002C306.064,62.902,306.064,64.846,304.865,66.045z
					 M325.389,75.811c-1.697,0-3.072-1.373-3.072-3.07c0-1.695,1.375-3.072,3.072-3.072s3.07,1.377,3.07,3.072
					C328.459,74.438,327.086,75.811,325.389,75.811z M324.934,63.234c-12.28,0-20.471-10.123-20.471-21.609v-0.227
					c0-11.486,8.076-21.494,20.244-21.494s20.473,10.121,20.473,21.607v0.227c0,2.844-0.457,5.461-1.365,7.961l-10.805-9.893
					l-11.146,12.51l11.033,9.439C330.508,62.666,327.777,63.234,324.934,63.234z M336.027,53.34
					c-1.152,1.246-3.094,1.322-4.34,0.174c-1.246-1.152-1.322-3.094-0.172-4.34s3.094-1.324,4.34-0.174
					S337.178,52.094,336.027,53.34z M347.789,64c-1.15,1.248-3.094,1.322-4.34,0.174c-1.246-1.152-1.322-3.096-0.172-4.342
					c1.15-1.244,3.094-1.322,4.34-0.172S348.939,62.754,347.789,64z M350.256,20.652c-1.199,1.199-3.143,1.201-4.344,0
					c-1.199-1.199-1.199-3.143,0-4.344c1.199-1.197,3.145-1.197,4.344,0.002C351.457,17.51,351.455,19.453,350.256,20.652z
					 M356.951,38.105c1.695,0,3.07,1.377,3.07,3.072c0,1.697-1.375,3.07-3.07,3.07c-1.697,0-3.072-1.373-3.072-3.07
					C353.879,39.482,355.254,38.105,356.951,38.105z M359.822,74.328c-1.15,1.246-3.094,1.324-4.34,0.174
					c-1.246-1.152-1.324-3.094-0.172-4.342c1.148-1.246,3.094-1.324,4.34-0.172C360.898,71.139,360.975,73.082,359.822,74.328z"/>
			</g>
			<g>
				<path fill="#FFFFFF" d="M434.459,46.402c0,11.145-5.799,16.377-14.783,16.377c-8.871,0-14.672-5.459-14.672-16.945V1.594
					h-22.291v44.695c0,24.904,14.215,36.393,36.734,36.393c22.633,0,37.303-11.373,37.303-36.963V1.594h-22.291V46.402z
					 M393.082,7.836c1.697,0,3.07,1.375,3.07,3.07c0,1.697-1.373,3.07-3.07,3.07c-1.695,0-3.072-1.373-3.072-3.07
					C390.01,9.211,391.387,7.836,393.082,7.836z M393.082,26.043c1.697,0,3.07,1.373,3.07,3.068c0,1.697-1.373,3.072-3.07,3.072
					c-1.695,0-3.072-1.375-3.072-3.072C390.01,27.416,391.387,26.043,393.082,26.043z M390.01,46.498c0-1.695,1.377-3.07,3.072-3.07
					c1.697,0,3.07,1.375,3.07,3.07c0,1.697-1.373,3.072-3.07,3.072C391.387,49.57,390.01,48.195,390.01,46.498z M399.854,66.045
					c-1.199,1.201-3.145,1.201-4.344,0c-1.199-1.199-1.199-3.145,0-4.344s3.145-1.197,4.342,0.002
					C401.053,62.902,401.053,64.846,399.854,66.045z M420.377,75.811c-1.695,0-3.07-1.373-3.07-3.07c0-1.695,1.375-3.072,3.07-3.072
					c1.697,0,3.072,1.377,3.072,3.072C423.449,74.438,422.074,75.811,420.377,75.811z M445.121,7.836c1.697,0,3.07,1.375,3.07,3.07
					c0,1.697-1.373,3.07-3.07,3.07s-3.072-1.373-3.072-3.07C442.049,9.211,443.424,7.836,445.121,7.836z M445.121,26.043
					c1.697,0,3.07,1.373,3.07,3.068c0,1.697-1.373,3.072-3.07,3.072s-3.072-1.375-3.072-3.072
					C442.049,27.416,443.424,26.043,445.121,26.043z M445.121,43.428c1.697,0,3.07,1.375,3.07,3.07c0,1.697-1.373,3.072-3.07,3.072
					s-3.072-1.375-3.072-3.072C442.049,44.803,443.424,43.428,445.121,43.428z M439.525,60.498c1.152-1.244,3.096-1.322,4.34-0.172
					c1.248,1.15,1.324,3.096,0.174,4.34c-1.152,1.248-3.094,1.324-4.34,0.174C438.453,63.688,438.377,61.744,439.525,60.498z"/>
			</g>
			<g>
				<path fill="#FFFFFF" d="M576.74,62.438V49.814h38.213v-17.4H576.74v-12.17h42.191V1.594h-64.027v79.609h64.598V62.438H576.74z
					 M604.918,38.105c1.693,0,3.07,1.377,3.07,3.072c0,1.697-1.377,3.07-3.07,3.07c-1.697,0-3.072-1.373-3.072-3.07
					C601.846,39.482,603.221,38.105,604.918,38.105z M585.611,38.105c1.697,0,3.07,1.377,3.07,3.072c0,1.697-1.373,3.07-3.07,3.07
					c-1.695,0-3.072-1.373-3.072-3.07C582.539,39.482,583.916,38.105,585.611,38.105z M611.059,7.834
					c1.697,0,3.072,1.377,3.072,3.072c0,1.697-1.375,3.07-3.072,3.07s-3.07-1.373-3.07-3.07
					C607.988,9.211,609.361,7.834,611.059,7.834z M595.924,7.834c1.695,0,3.07,1.377,3.07,3.072c0,1.697-1.375,3.07-3.07,3.07
					c-1.697,0-3.07-1.373-3.07-3.07C592.854,9.211,594.227,7.834,595.924,7.834z M580.787,7.834c1.697,0,3.07,1.377,3.07,3.072
					c0,1.697-1.373,3.07-3.07,3.07c-1.695,0-3.072-1.373-3.072-3.07C577.715,9.211,579.092,7.834,580.787,7.834z M565.652,74.52
					c-1.695,0-3.072-1.373-3.072-3.07c0-1.695,1.377-3.072,3.072-3.072c1.697,0,3.07,1.377,3.07,3.072
					C568.723,73.146,567.35,74.52,565.652,74.52z M565.652,59.385c-1.695,0-3.072-1.375-3.072-3.07c0-1.697,1.377-3.072,3.072-3.072
					c1.697,0,3.07,1.375,3.07,3.072C568.723,58.01,567.35,59.385,565.652,59.385z M565.652,44.248c-1.695,0-3.072-1.375-3.072-3.07
					s1.377-3.07,3.072-3.07c1.697,0,3.07,1.375,3.07,3.07S567.35,44.248,565.652,44.248z M565.652,29.113
					c-1.695,0-3.072-1.375-3.072-3.072c0-1.695,1.377-3.07,3.072-3.07c1.697,0,3.07,1.375,3.07,3.07
					C568.723,27.738,567.35,29.113,565.652,29.113z M565.652,13.977c-1.695,0-3.072-1.373-3.072-3.07c0-1.695,1.377-3.07,3.072-3.07
					c1.697,0,3.07,1.375,3.07,3.07C568.723,12.604,567.35,13.977,565.652,13.977z M580.787,74.52c-1.695,0-3.072-1.373-3.072-3.07
					c0-1.695,1.377-3.072,3.072-3.072c1.697,0,3.07,1.377,3.07,3.072C583.857,73.146,582.484,74.52,580.787,74.52z M595.924,74.52
					c-1.697,0-3.07-1.373-3.07-3.07c0-1.695,1.373-3.072,3.07-3.072c1.695,0,3.07,1.377,3.07,3.072
					C598.994,73.146,597.619,74.52,595.924,74.52z M611.059,74.52c-1.697,0-3.07-1.373-3.07-3.07c0-1.695,1.373-3.072,3.07-3.072
					s3.072,1.377,3.072,3.072C614.131,73.146,612.756,74.52,611.059,74.52z"/>
			</g>
			<g>
				<path fill="#FFFFFF" d="M496.217,49.814h38.215v-17.4h-38.215v-12.17h42.193V1.594h-64.029v79.609h64.6V62.438h-42.764V49.814z
					 M524.395,38.105c1.695,0,3.07,1.377,3.07,3.072c0,1.697-1.375,3.07-3.07,3.07c-1.697,0-3.07-1.373-3.07-3.07
					C521.324,39.482,522.697,38.105,524.395,38.105z M505.088,38.105c1.697,0,3.072,1.377,3.072,3.072
					c0,1.697-1.375,3.07-3.072,3.07c-1.693,0-3.07-1.373-3.07-3.07C502.018,39.482,503.395,38.105,505.088,38.105z M530.537,7.834
					c1.695,0,3.07,1.377,3.07,3.072c0,1.697-1.375,3.07-3.07,3.07c-1.697,0-3.072-1.373-3.072-3.07
					C527.465,9.211,528.84,7.834,530.537,7.834z M515.402,7.834c1.693,0,3.068,1.377,3.068,3.072c0,1.697-1.375,3.07-3.068,3.07
					c-1.697,0-3.072-1.373-3.072-3.07C512.33,9.211,513.705,7.834,515.402,7.834z M500.264,7.834c1.697,0,3.072,1.377,3.072,3.072
					c0,1.697-1.375,3.07-3.072,3.07c-1.693,0-3.07-1.373-3.07-3.07C497.193,9.211,498.57,7.834,500.264,7.834z M530.537,68.377
					c1.695,0,3.07,1.377,3.07,3.072c0,1.697-1.375,3.07-3.07,3.07c-1.697,0-3.072-1.373-3.072-3.07
					C527.465,69.754,528.84,68.377,530.537,68.377z M515.402,68.377c1.693,0,3.068,1.377,3.068,3.072c0,1.697-1.375,3.07-3.068,3.07
					c-1.697,0-3.072-1.373-3.072-3.07C512.33,69.754,513.705,68.377,515.402,68.377z M500.264,68.377
					c1.697,0,3.072,1.377,3.072,3.072c0,1.697-1.375,3.07-3.072,3.07c-1.693,0-3.07-1.373-3.07-3.07
					C497.193,69.754,498.57,68.377,500.264,68.377z M485.129,74.52c-1.695,0-3.07-1.373-3.07-3.07c0-1.695,1.375-3.072,3.07-3.072
					c1.697,0,3.072,1.377,3.072,3.072C488.201,73.146,486.826,74.52,485.129,74.52z M485.129,59.385c-1.695,0-3.07-1.375-3.07-3.07
					c0-1.697,1.375-3.072,3.07-3.072c1.697,0,3.072,1.375,3.072,3.072C488.201,58.01,486.826,59.385,485.129,59.385z
					 M485.129,44.248c-1.695,0-3.07-1.375-3.07-3.07s1.375-3.07,3.07-3.07c1.697,0,3.072,1.375,3.072,3.07
					S486.826,44.248,485.129,44.248z M485.129,29.113c-1.695,0-3.07-1.375-3.07-3.072c0-1.695,1.375-3.07,3.07-3.07
					c1.697,0,3.072,1.375,3.072,3.07C488.201,27.738,486.826,29.113,485.129,29.113z M485.129,13.977c-1.695,0-3.07-1.373-3.07-3.07
					c0-1.695,1.375-3.07,3.07-3.07c1.697,0,3.072,1.375,3.072,3.07C488.201,12.604,486.826,13.977,485.129,13.977z"/>
			</g>
		</g>
	</g>
	<g>
		<g>
			<path fill="#FFFFFF" d="M201.237,173.373l33.47-57.986c3.913-6.867,0.174-11.824-4.869-11.824
				c-4.868,0-10.171,3.305-16.17,10.955c3.13-6.346-0.521-10.955-5.303-10.955c-4.695,0-9.824,3.045-15.562,10.26l2.434-4.26
				l-4.607-7.91c-15.91,12.605-35.818,7.998-43.208,20.863c-5.825,10.172,1.13,17.475,7.129,19.822l3.391-5.824
				c0,0-7.825-3.219-3.391-10.781c4.173-7.217,19.561-7.477,29.298-12.432l-30.95,53.727h9.302l21.561-37.557
				c16.779-23.297,24.603-21.387,20.343-13.996l-29.732,51.553h9.215l21.039-36.688l0.087-0.086
				c17.127-24.17,25.212-22.256,20.865-14.779l-31.124,54.074c-3.651,6.346-3.304,14.693,4.173,18.43l3.826-6.605
				C199.411,179.895,199.932,175.547,201.237,173.373z"/>
		</g>
		<g>
			<path fill="#FFFFFF" d="M365.525,118.953c2.955,0,5.303-2.262,5.303-5.219c0-2.955-2.348-5.303-5.303-5.303
				c-2.957,0-5.215,2.348-5.215,5.303C360.311,116.691,362.568,118.953,365.525,118.953z"/>
		</g>
		<g>
			<path fill="#FFFFFF" d="M462.189,148.074l-0.609,0.697c-6.52,7.564-12.867,13.562-16.865,13.562c-2,0-3.129-1.393-1.043-4.957
				l30.602-52.943h-9.041l-13.301,22.951c-1.566-2.521-4.521-4.695-8.26-4.695c-4.867,0-11.65,3.826-15.475,10.434l-8.67,14.963
				c-0.007-0.004-0.015-0.008-0.021-0.012l-0.609,0.697c-6.52,7.564-12.865,13.562-16.865,13.562c-2,0-3.129-1.393-1.043-4.957
				l30.428-52.943h-9.041l-25.198,43.646c-0.003-0.002-0.006-0.004-0.009-0.006l-0.609,0.697
				c-6.52,7.564-14.867,13.562-21.213,13.562c-5.562,0-8.867-3.48-4.695-10.781l0.871-1.564c5.824,2.434,16.777,1.305,23.559-10.432
				l1.305-2.262c4.869-8.346,0.174-14.605-7.217-14.605c-7.303,0-13.127,3.826-16.953,10.434l-8.761,15.033l-0.536,0.615
				c-6.52,7.564-12.867,13.562-16.867,13.562c-1.998,0-3.129-1.393-1.043-4.957l19.387-33.818h-9.041l-14.157,24.521
				c-0.003-0.002-0.006-0.004-0.009-0.006l-0.609,0.697c-8.953,10.346-18.779,13.041-25.994,13.562
				c6.174-3.217,13.65-8.346,18.256-16.26l14.52-25.123c10.434-18.082-9.129-23.908-20.951-3.391l-17.581,30.541l-0.585,0.67
				c-7.476,8.605-13.822,14.17-20.951,17.215l24.777-42.428h-9.041l-15.996,27.818c-6.955,6.436-12.346,10-14.084,9.217
				c-2.26-0.955,0-4.346,1.13-6.258l17.647-30.777h-9.041l-14.169,24.52l-0.605,0.693c-6.52,7.564-12.867,13.562-16.866,13.562
				c-2,0-3.13-1.393-1.043-4.957l14.605-25.559h-5.129c0.347-3.826-3.564-9.129-9.477-9.129c-4.869,0-11.65,3.826-15.474,10.434
				l-12.693,21.906c-3.825,6.695-1.13,12.867,6.173,12.867c3.651,0,8.172-2.348,12.519-5.91c0.435,3.477,3.217,5.91,7.825,5.91
				c4.482,0,9.37-2.885,14.177-7.059c-0.533,4.336,1.739,7.059,5.901,7.059c4.347,0,9.302-3.65,13.388-7.303l-4.956,8.521
				c-12.258,3.65-19.909,8.691-19.909,15.475c0,8.691,13.302,10.518,19.822-0.609l6.956-11.91c5.527-1.74,10.996-4.697,16.581-9.168
				l-11.283,19.6c-6.955,12.084,6.955,21.734,16.604,4.781l6.78-11.91c1.826-3.217,1.912-6.605,1.045-9.127
				c6.376-0.375,14.368-1.852,22.17-7.064c-0.89,4.891,1.986,8.715,7.732,8.715c5.378,0,11.339-4.146,17.045-9.703
				c0.434,5.629,5.001,9.703,12.248,9.703c6.538,0,13.037-3.254,18.828-7.859c-0.421,4.475,2.452,7.859,7.857,7.859
				c4.568,0,9.558-2.992,14.454-7.299c-0.135,4.191,2.711,7.299,7.888,7.299c3.65,0,8.17-2.348,12.518-5.91
				c0.436,3.477,3.217,5.91,7.824,5.91c7.477,0,16.084-7.998,23.561-16.689C464.971,149.988,463.406,148.596,462.189,148.074z
				 M379.953,135.383c5.217-8.953,14.432-7.477,9.041,1.912l-1.303,2.262c-4.348,7.389-10.172,7.215-13.562,5.998L379.953,135.383z
				 M245.306,149.641c-5.477,8.605-10.867,12.693-14.605,12.693c-2,0-3.13-1.393-1.043-4.957l12.605-21.994
				c4.869-8.434,14.519-6.26,10.084,1.912L245.306,149.641z M269.208,182.502c-1.913,3.393-4.955,2.869-4.955,0.434
				c0-2.346,2.173-5.041,9.128-7.736L269.208,182.502z M307.021,173.199l-7.563,13.303c-3.129,5.391-6.867,3.824-3.129-2.521
				l10.258-17.561h0.783C308.846,167.375,308.846,169.811,307.021,173.199z M310.236,160.072l24.518-42.076
				c4.867-8.434,11.127-8.086,6.693,0.086l-14.084,24.43C323.365,149.381,317.365,156.943,310.236,160.072z M439.238,149.119
				c-5.479,8.953-11.041,13.215-14.867,13.215c-2,0-3.129-1.393-1.043-4.957l12.605-21.994c4.869-8.434,14.52-6.26,10.086,1.912
				h0.086L439.238,149.119z"/>
		</g>
	</g>
</g>
</svg>
