<?xml version="1.0" encoding="utf-8"?>
<!-- Generator: Adobe Illustrator 16.0.0, SVG Export Plug-In . SVG Version: 6.00 Build 0)  -->
<!DOCTYPE svg PUBLIC "-//W3C//DTD SVG 1.1//EN" "http://www.w3.org/Graphics/SVG/1.1/DTD/svg11.dtd">
<svg version="1.1" id="Layer_1" xmlns="http://www.w3.org/2000/svg" xmlns:xlink="http://www.w3.org/1999/xlink" x="0px" y="0px"
	 width="512px" height="512px" viewBox="0 0 512 512" enable-background="new 0 0 512 512" xml:space="preserve">
<g id="Grid">
	<rect fill="none" stroke="#A9CCDB" stroke-miterlimit="10" width="512" height="512"/>
	<line fill="none" stroke="#A9CCDB" stroke-miterlimit="10" x1="0" y1="32" x2="512" y2="32"/>
	<line fill="none" stroke="#A9CCDB" stroke-miterlimit="10" x1="0" y1="64" x2="512" y2="64"/>
	<line fill="none" stroke="#A9CCDB" stroke-miterlimit="10" x1="0" y1="96" x2="512" y2="96"/>
	<line fill="none" stroke="#A9CCDB" stroke-miterlimit="10" x1="0" y1="128" x2="512" y2="128"/>
	<line fill="none" stroke="#A9CCDB" stroke-miterlimit="10" x1="0" y1="160" x2="512" y2="160"/>
	<line fill="none" stroke="#A9CCDB" stroke-miterlimit="10" x1="0" y1="192" x2="512" y2="192"/>
	<line fill="none" stroke="#A9CCDB" stroke-miterlimit="10" x1="0" y1="224" x2="512" y2="224"/>
	<line fill="none" stroke="#A9CCDB" stroke-miterlimit="10" x1="0" y1="256" x2="512" y2="256"/>
	<line fill="none" stroke="#A9CCDB" stroke-miterlimit="10" x1="0" y1="288" x2="512" y2="288"/>
	<line fill="none" stroke="#A9CCDB" stroke-miterlimit="10" x1="0" y1="320" x2="512" y2="320"/>
	<line fill="none" stroke="#A9CCDB" stroke-miterlimit="10" x1="0" y1="352" x2="512" y2="352"/>
	<line fill="none" stroke="#A9CCDB" stroke-miterlimit="10" x1="0" y1="384" x2="512" y2="384"/>
	<line fill="none" stroke="#A9CCDB" stroke-miterlimit="10" x1="0" y1="416" x2="512" y2="416"/>
	<line fill="none" stroke="#FF0000" stroke-miterlimit="10" x1="0" y1="448" x2="512" y2="448"/>
	<line fill="none" stroke="#A9CCDB" stroke-miterlimit="10" x1="0" y1="480" x2="512" y2="480"/>
	<line fill="none" stroke="#A9CCDB" stroke-miterlimit="10" x1="32" y1="0" x2="32" y2="512"/>
	<line fill="none" stroke="#A9CCDB" stroke-miterlimit="10" x1="64" y1="0" x2="64" y2="512"/>
	<line fill="none" stroke="#A9CCDB" stroke-miterlimit="10" x1="96" y1="0" x2="96" y2="512"/>
	<line fill="none" stroke="#A9CCDB" stroke-miterlimit="10" x1="128" y1="0" x2="128" y2="512"/>
	<line fill="none" stroke="#A9CCDB" stroke-miterlimit="10" x1="160" y1="0" x2="160" y2="512"/>
	<line fill="none" stroke="#A9CCDB" stroke-miterlimit="10" x1="192" y1="0" x2="192" y2="512"/>
	<line fill="none" stroke="#A9CCDB" stroke-miterlimit="10" x1="224" y1="0" x2="224" y2="512"/>
	<line fill="none" stroke="#A9CCDB" stroke-miterlimit="10" x1="256" y1="0" x2="256" y2="512"/>
	<line fill="none" stroke="#A9CCDB" stroke-miterlimit="10" x1="288" y1="0" x2="288" y2="512"/>
	<line fill="none" stroke="#A9CCDB" stroke-miterlimit="10" x1="320" y1="0" x2="320" y2="512"/>
	<line fill="none" stroke="#A9CCDB" stroke-miterlimit="10" x1="352" y1="0" x2="352" y2="512"/>
	<line fill="none" stroke="#A9CCDB" stroke-miterlimit="10" x1="384" y1="0" x2="384" y2="512"/>
	<line fill="none" stroke="#A9CCDB" stroke-miterlimit="10" x1="416" y1="0" x2="416" y2="512"/>
	<line fill="none" stroke="#A9CCDB" stroke-miterlimit="10" x1="448" y1="0" x2="448" y2="512"/>
	<line fill="none" stroke="#A9CCDB" stroke-miterlimit="10" x1="480" y1="0" x2="480" y2="512"/>
</g>
<g>
	<path d="M26.726,354.433c1.068,0,1.935-0.842,2.105-2.047l5.68-44.586l-5.677-45.583c-0.173-1.21-1.04-2.049-2.108-2.049
		c-1.08,0-1.967,0.863-2.111,2.052c0,0.006-4.992,45.58-4.992,45.58l4.992,44.575C24.758,353.569,25.646,354.433,26.726,354.433z
		 M9.99,335.515c0,0,0,0,0,0.005H9.987L9.99,335.515z M7.958,337.492c1.029,0,1.863-0.811,2.031-1.973l4.395-27.72L9.99,279.601
		c-0.166-1.162-1.002-1.975-2.031-1.975c-1.058,0-1.895,0.817-2.036,1.985L2.212,307.8l3.71,27.709
		C6.063,336.677,6.9,337.492,7.958,337.492z M49.208,253.72c-0.157-1.444-1.226-2.489-2.542-2.489c-1.341,0-2.41,1.048-2.546,2.492
		c0,0.003-4.736,54.083-4.736,54.083l4.736,52.107c0.136,1.45,1.205,2.495,2.546,2.495c1.316,0,2.385-1.045,2.54-2.484l5.384-52.118
		L49.208,253.72z M66.77,364.498c1.554,0,2.833-1.259,2.975-2.922l0,0l5.085-53.76l-5.085-55.581
		c-0.141-1.66-1.421-2.916-2.975-2.916c-1.572,0-2.854,1.258-2.98,2.927l-4.478,55.57l4.478,53.76
		C63.915,363.239,65.197,364.498,66.77,364.498z M87.034,365.383c1.812,0,3.278-1.45,3.412-3.364l-0.002,0.011l4.79-54.208
		l-4.79-51.569c-0.131-1.9-1.597-3.345-3.409-3.345c-1.828,0-3.294,1.447-3.409,3.366L79.4,307.821l4.225,54.202
		C83.74,363.933,85.206,365.383,87.034,365.383z M115.799,307.843l-4.491-83.871c-0.12-2.132-1.807-3.801-3.841-3.801
		c-2.05,0-3.739,1.672-3.843,3.804c0,0.003-3.969,83.868-3.969,83.868l3.969,54.197c0.104,2.116,1.793,3.79,3.843,3.79
		c2.034,0,3.721-1.674,3.841-3.801v0.016L115.799,307.843z M128.06,365.932c2.287,0,4.166-1.86,4.275-4.238l-0.002,0.032
		l4.198-53.872l-4.195-103.048c-0.109-2.378-1.988-4.238-4.275-4.238c-2.3,0-4.18,1.86-4.278,4.238
		c0,0.005-3.71,103.048-3.71,103.048l3.713,53.861C123.88,364.071,125.759,365.932,128.06,365.932z M148.817,191.54
		c-2.554,0-4.622,2.055-4.713,4.678c0,0.003-3.454,111.646-3.454,111.646l3.457,53.307c0.088,2.597,2.156,4.648,4.71,4.648
		c2.537,0,4.605-2.047,4.709-4.669l-0.002,0.031l3.899-53.317l-3.897-111.649C153.423,193.593,151.354,191.54,148.817,191.54z
		 M169.737,365.926c2.793,0,5.051-2.244,5.142-5.106l-0.003,0.032l3.606-52.977l-3.604-115.415
		c-0.091-2.868-2.348-5.112-5.142-5.112c-2.804,0-5.062,2.247-5.144,5.114l-3.198,115.407l3.201,52.977
		C164.676,363.682,166.934,365.926,169.737,365.926z M190.823,365.873c3.043,0,5.49-2.441,5.573-5.55v0.038l3.308-52.481
		l-3.308-112.47c-0.083-3.107-2.53-5.541-5.573-5.541c-3.058,0-5.507,2.436-5.579,5.546l-2.943,112.465l2.945,52.47
		C185.316,363.432,187.766,365.873,190.823,365.873z M221.088,307.891l-3.009-108.373c-0.075-3.348-2.713-5.976-6.008-5.976
		c-3.305,0-5.946,2.631-6.01,5.986l-2.687,108.357l2.689,52.14c0.062,3.32,2.703,5.943,6.008,5.943c3.294,0,5.933-2.623,6.008-5.98
		v0.042L221.088,307.891z M233.482,366.075c3.492,0,6.381-2.878,6.442-6.418l-0.003,0.043l2.716-51.799l-2.713-128.955
		c-0.062-3.537-2.951-6.416-6.442-6.416c-3.497,0-6.386,2.882-6.442,6.421l-2.431,128.907c0,0.08,2.431,51.836,2.431,51.836
		C227.096,363.197,229.985,366.075,233.482,366.075z M254.799,160.414c-3.745,0-6.829,3.078-6.879,6.858l-2.817,140.64l2.82,51.041
		c0.048,3.727,3.132,6.803,6.876,6.803c3.737,0,6.818-3.076,6.872-6.855v0.059l3.06-51.047l-3.06-140.65
		C261.617,163.49,258.536,160.414,254.799,160.414z M274.305,366.113c0.16,0.016,171.941,0.101,173.056,0.101
		c34.479,0,62.428-27.954,62.428-62.438S481.84,241.34,447.36,241.34c-8.556,0-16.717,1.734-24.147,4.848
		c-4.969-56.263-52.15-100.401-109.706-100.401c-14.084,0-27.811,2.77-39.938,7.461c-4.712,1.825-5.965,3.696-6.007,7.34
		c0,0.003,0,198.148,0,198.148C267.609,362.557,270.573,365.739,274.305,366.113z"/>
</g>
</svg>
